<?xml version="1.0" encoding="utf-8"?>
<!-- Generator: Adobe Illustrator 27.3.1, SVG Export Plug-In . SVG Version: 6.00 Build 0)  -->
<svg version="1.1" id="Слой_1" xmlns="http://www.w3.org/2000/svg" xmlns:xlink="http://www.w3.org/1999/xlink" x="0px" y="0px"
     viewBox="0 0 230.14 201.89" style="enable-background:new 0 0 230.14 201.89;" xml:space="preserve">
<style type="text/css">
	.st0{fill:#CD9148;}
	.st1{fill:#FFFFFF;}
</style>
    <g>
	<g>
		<g>
			<g id="logo-center_00000149382269195551388750000003925223798772177295_" transform="translate(0 0)">
				<g id="slogan_00000160164979256346374080000001050975360205946536_" transform="translate(0 0)">
					<path id="path434692_00000115489881642810048020000000378851083603771581_" class="st0" d="M45.03,201.89
						c-2.39,0-4.18-0.63-5.37-1.9c-1.19-1.27-1.79-3.15-1.79-5.65c0-2.61,0.59-4.52,1.76-5.71c1.19-1.19,3-1.79,5.4-1.79
						s4.22,0.62,5.43,1.85c1.21,1.21,1.82,3.1,1.82,5.65c0,2.46-0.63,4.34-1.88,5.63S47.36,201.89,45.03,201.89L45.03,201.89z
						 M45.03,198.56c1.03,0,1.8-0.35,2.32-1.06c0.52-0.73,0.78-1.78,0.78-3.16c0-1.51-0.26-2.58-0.78-3.22
						c-0.5-0.65-1.28-0.98-2.32-0.98c-1.08,0-1.87,0.33-2.35,0.98c-0.47,0.63-0.7,1.71-0.7,3.22c0,1.44,0.24,2.5,0.73,3.19
						C43.21,198.22,43.98,198.56,45.03,198.56L45.03,198.56z"/>
                    <path id="path434694_00000137841544804189823070000015642472255058867079_" class="st0" d="M55.16,188.51
						c0.73-0.39,1.84-0.76,3.33-1.09c1.49-0.34,2.83-0.5,4-0.5c2,0,3.5,0.39,4.51,1.18c1.01,0.78,1.51,2.07,1.51,3.86v9.52h-4.17
						v-8.68c0-1.62-0.91-2.44-2.74-2.44c-0.41,0-0.83,0.05-1.26,0.14c-0.43,0.09-0.77,0.21-1.01,0.34v10.64h-4.17V188.51z"/>
                    <path id="path434696_00000172418432415326025900000015326316798376100503_" class="st0" d="M72.22,201.47v-19.51h4.14v19.51
						H72.22z"/>
                    <path id="path434698_00000031889846311177057410000008064734175603019191_" class="st0" d="M80.03,182.16h4.31v3.22h-4.31
						V182.16z M80.12,187.5h4.17l0.03,13.97h-4.2V187.5z"/>
                    <path id="path434700_00000135658354498063576930000007525331509570753713_" class="st0" d="M88.02,188.51
						c0.73-0.39,1.84-0.76,3.33-1.09c1.49-0.34,2.83-0.5,4-0.5c2,0,3.5,0.39,4.51,1.18c1.01,0.78,1.51,2.07,1.51,3.86v9.52H97.2
						v-8.68c0-1.62-0.91-2.44-2.74-2.44c-0.41,0-0.83,0.05-1.26,0.14c-0.43,0.09-0.77,0.21-1.01,0.34v10.64h-4.17V188.51z"/>
                    <path id="path434702_00000101101833844950636950000007590279004270195343_" class="st0" d="M111.35,186.83
						c4.42,0,6.61,2.88,6.55,8.65h-9.35c0.35,1.96,1.67,2.94,3.95,2.94c0.69,0,1.36-0.09,2.02-0.28c0.67-0.21,1.38-0.47,2.13-0.78
						v3.58c-1.53,0.63-3.25,0.95-5.15,0.95c-1.44,0-2.7-0.29-3.78-0.87c-1.08-0.6-1.92-1.45-2.52-2.55c-0.6-1.1-0.9-2.4-0.9-3.89
						c0-2.46,0.61-4.37,1.82-5.71C107.34,187.51,109.09,186.83,111.35,186.83z M111.18,190.02c-1.49,0-2.38,0.93-2.66,2.8h5.23
						c-0.13-1.01-0.4-1.73-0.81-2.16C112.55,190.24,111.96,190.02,111.18,190.02z"/>
                    <path id="path434704_00000034061228012174450940000012153191214732061115_" class="st0" d="M136.06,186.92
						c2.07,0,3.66,0.63,4.76,1.9c1.1,1.27,1.65,3.11,1.65,5.51c-0.02,5.04-2.5,7.56-7.45,7.56c-4.33,0-6.49-1.23-6.49-3.7v-16.12
						h4.09v5.74c0.5-0.3,1.07-0.52,1.71-0.67C134.98,186.99,135.56,186.92,136.06,186.92z M134.97,198.42
						c2.22,0,3.33-1.28,3.33-3.84c0-2.89-1.08-4.34-3.25-4.34c-0.39,0-0.81,0.06-1.26,0.17c-0.45,0.09-0.84,0.23-1.18,0.42v6.27
						C132.62,197.98,133.4,198.42,134.97,198.42z"/>
                    <path id="path434706_00000125593122388081731220000005236404858207369134_" class="st0" d="M151.75,201.89
						c-2.39,0-4.18-0.63-5.37-1.9c-1.19-1.27-1.79-3.15-1.79-5.65c0-2.61,0.59-4.52,1.76-5.71c1.19-1.19,3-1.79,5.4-1.79
						s4.22,0.62,5.43,1.85c1.21,1.21,1.82,3.1,1.82,5.65c0,2.46-0.63,4.34-1.88,5.63C155.88,201.25,154.09,201.89,151.75,201.89
						L151.75,201.89z M151.75,198.56c1.03,0,1.8-0.35,2.32-1.06c0.52-0.73,0.78-1.78,0.78-3.16c0-1.51-0.26-2.58-0.78-3.22
						c-0.5-0.65-1.28-0.98-2.32-0.98c-1.08,0-1.87,0.33-2.35,0.98c-0.47,0.63-0.7,1.71-0.7,3.22c0,1.44,0.24,2.5,0.73,3.19
						C149.93,198.22,150.71,198.56,151.75,198.56z"/>
                    <path id="path434708_00000150091154123023965290000005937704503132553634_" class="st0" d="M168.27,201.89
						c-2.39,0-4.18-0.63-5.37-1.9c-1.19-1.27-1.79-3.15-1.79-5.65c0-2.61,0.59-4.52,1.76-5.71c1.19-1.19,3-1.79,5.4-1.79
						s4.22,0.62,5.43,1.85c1.21,1.21,1.82,3.1,1.82,5.65c0,2.46-0.63,4.34-1.88,5.63C172.39,201.25,170.6,201.89,168.27,201.89
						L168.27,201.89z M168.27,198.56c1.03,0,1.8-0.35,2.32-1.06c0.52-0.73,0.78-1.78,0.78-3.16c0-1.51-0.26-2.58-0.78-3.22
						c-0.5-0.65-1.28-0.98-2.32-0.98c-1.08,0-1.87,0.33-2.35,0.98c-0.47,0.63-0.7,1.71-0.7,3.22c0,1.44,0.24,2.5,0.73,3.19
						C166.45,198.22,167.22,198.56,168.27,198.56z"/>
                    <path id="path434710_00000034088405788388581840000007732141075521485485_" class="st0" d="M186.99,201.47l-4.42-5.85
						l-0.03,5.85h-4.14v-19.51h4.2l-0.03,10.58l4.28-5.23h5.07l-5.85,6.16l6.21,8.01H186.99z"/>
				</g>
                <g id="title_00000126324018496480591600000014090804145958120874_" transform="translate(0 0)">

						<g id="path434713_00000101090565066977104600000009022487264319699086_" transform="translate(-1.1368683772161603e-13 397.22744) translate(323.90165375 13.596800000000002) scale(1.79) translate(-406.91994 46.08)">
						<path class="st0" d="M231.7-217.26v21.06c0,1.28,0.13,1.41,1.41,1.41h14.45v5.73h-14.45c-4.05,0-7.14-3.08-7.14-7.14v-21.06
							H231.7z"/>
					</g>

                    <g id="path434715_00000173138546919029711080000008091588627353097396_" transform="translate(-1.1368683772161603e-13 397.22744) translate(392.6208635500001 13.596800000000002) scale(1.79) translate(-445.31056 46.08)">
						<rect x="249.46" y="-217.26" class="st0" width="5.73" height="3.52"/>
                        <polygon class="st0" points="255.14,-189.07 249.46,-189.07 249.46,-211.98 255.18,-211.98 						"/>
					</g>

                    <g id="path434717_00000132079677726826974060000008503096564089581723_" transform="translate(-1.1368683772161603e-13 397.22744) translate(415.02384125000003 13.596800000000002) scale(1.79) translate(-457.82619 46.08)">
						<path class="st0" d="M262.84-191.67v2.6h-5.73v-28.19h5.73v7.89c1.67-1.76,3.96-2.82,6.87-2.82c6.43,0,10.79,5.2,10.79,11.59
							c0,6.56-4.36,11.81-10.79,11.81C266.8-188.81,264.51-189.86,262.84-191.67z M267.51-194.49h2.64c3,0,5.07-2.29,5.07-6.12
							s-2.07-6.12-5.07-6.12h-2.64c-3,0-4.67,1.85-4.67,4.8v2.64C262.84-196.34,264.51-194.49,267.51-194.49z"/>
					</g>

                    <g id="path434719_00000129889664421758154730000003176166201092947872_" transform="translate(-1.1368683772161603e-13 397.22744) translate(489.0291537500001 28.418000000000006) scale(1.79) translate(-499.16994 37.8)">
						<path class="st0" d="M288.13-211.98v1.72c1.28-1.32,3.13-1.94,5.81-1.94v5.64h-2.38c-2.78,0-3.44,1.94-3.44,5.07v12.42h-5.73
							v-22.91H288.13z"/>
					</g>

                    <g id="path434721_00000044168904448128553030000010977295906937143936_" transform="translate(-1.1368683772161603e-13 397.22744) translate(522.0043010500001 28.418000000000006) scale(1.79) translate(-517.59181 37.8)">
						<path class="st0" d="M293.67-200.61c0-6.39,4.36-11.59,10.79-11.59c2.91,0,5.2,1.06,6.87,2.82v-2.6h5.73v22.91h-5.73v-2.6
							c-1.67,1.81-3.96,2.86-6.87,2.86C298.03-188.81,293.67-194.05,293.67-200.61z M304.03-194.49h2.64c3,0,4.67-1.85,4.67-4.8
							v-2.64c0-2.95-1.67-4.8-4.67-4.8h-2.64c-3,0-5.07,2.29-5.07,6.12S301.03-194.49,304.03-194.49z"/>
					</g>

                    <g id="path434723_00000050635051633534023000000013098242131555000507_" transform="translate(-1.1368683772161603e-13 397.22744) translate(596.0096135500002 28.418000000000006) scale(1.79) translate(-558.93556 37.8)">
						<path class="st0" d="M324.69-211.98v1.72c1.28-1.32,3.13-1.94,5.81-1.94v5.64h-2.38c-2.78,0-3.44,1.94-3.44,5.07v12.42h-5.73
							v-22.91H324.69z"/>
					</g>

                    <g id="path434725_00000169552813278385558090000003706679084603713431_" transform="translate(-1.1368683772161603e-13 397.22744) translate(635.5294662500002 29.062399999999997) scale(1.79) translate(-581.01369 37.44)">
						<path class="st0" d="M332.52-199.2v-12.77h5.73v11.45c0,4.1,1.89,6.03,4.67,6.03h2.47c2.78,0,3.44-1.94,3.44-5.07v-12.42h5.73
							v21.14c0,6.3-3.83,10.13-10.13,10.13h-1.81c-6.87,0-10.13-3.26-10.13-7.49h5.73c0,1.41,0.53,1.76,4.41,1.76h1.81
							c3.52,0,4.41-0.88,4.41-4.36c-1.28,1.32-3.13,1.94-5.81,1.94C335.86-188.85,332.52-192.15,332.52-199.2z"/>
					</g>
				</g>
			</g>
            <circle class="st0" cx="115.07" cy="39.38" r="39.38"/>
		</g>
	</g>

        <g id="path434713_00000131353344930125983870000003898874547257832366_" transform="translate(-1.1368683772161603e-13 397.22744) translate(323.90165375 13.596800000000002) scale(1.79) translate(-406.91994 46.08)">
		<path class="st1" d="M285.99-265.45v17.72c0,1.08,0.11,1.19,1.19,1.19h12.16v4.82h-12.16c-3.41,0-6.01-2.6-6.01-6.01v-17.72
			H285.99z"/>
	</g>
</g>
</svg>
